<svg viewBox="0 0 35.67980595665547 49.99999999999999" xmlns="http://www.w3.org/2000/svg" xmlns:xlink="http://www.w3.org/1999/xlink" version="1.1" class="jsx-2263963463 artboard-inner" style="width: 25px; height: 35.0338px; max-height: 100%;"><g transform="translate(-7.556923908238249 -0.396825018007792) scale(0.3968253727973228)" id="lockup4-icon"><g fill="#ffffff"><path d="M51.056 114.303l-.203-.001-.141.003c.114 0 .228 0 .344-.002z"></path><path d="M80.699 63.332l28.082-49.005a1.335 1.335 0 0 0-.074-1.439l-8.449-11.534c-.249-.346-.65-.354-1.075-.354H28.816c-.427 0-.825.008-1.075.354l-8.294 11.418c-.058.057-.104.094-.149.159-.009.013-.017.012-.025.025-.028.042-.064.073-.087.118l-.021.044a1.402 1.402 0 0 0-.081.233 1.324 1.324 0 0 0-.031.176l-.007.052c-.004.074-.002.149.006.223.002.022.007.043.011.064a1.567 1.567 0 0 0 .058.237c.026.074.057.147.098.218l28.096 49.022-28.096 49.011c-.259.451-.229.994.074 1.416l8.448 12.205c.25.346.648 1.025 1.075 1.025h70.367c.426 0 .825-.688 1.075-1.034l8.448-11.972c.304-.422.333-1.104.074-1.555L80.699 63.332zm25.359-49.717L79.172 60.591 73.11 50.066 98.603 3.445l7.455 10.17zM29.495 3H98.38L71.521 47.287c-.8-1.399-5.97-10.437-5.967-10.444l12.19-21.319c.369-.646.921-1.385.861-2.156-.028-.362-.372-.752-.632-.979-.396-.346-.911-.255-1.388-.206-1.167.122-54.003 1.341-54.557 1.354L29.495 3zM64 34.467L59.722 27h8.56L64 34.467zM21.942 13.748l53.072 1.161L69.79 24H43.264c-.558 0-1.477-.07-1.907.284-.562.461-.501 1.227-.257 1.835.175.437.526.843.772 1.256l.483.815c.427.721 41.136 71.81 41.136 71.81H71.249L21.942 13.748zM68.28 100h-8.56l4.281-7.467L68.28 100zm-38.785 24l-7.553-10.795 26.943-47.12 6.012 10.489.137.237L29.534 124h-.039zm69.01 0l-68.744.156 26.731-44.8 5.916 10.329-12.184 21.256c-.189.33-.358.672-.531 1.012-.208.408-.383.764-.284 1.225.078.369.45.641.705.896.197.197.469.224.738.229l55.189-1.067L98.505 124zm7.517-11.049l-53.055-1.24L58.505 102s27.205.209 27.855-.379c.446-.401.345-.955.264-1.496-.048-.314-.192-.5-.352-.777l-19.41-33.722a1188504.901 1188504.901 0 0 1-22.07-38.344l-.163-.283h12.079l49.343 85.895-.029.057z"></path><path d="M19.219 14.334l28.077 49.003.006-.009zM50.71 114.303h.001-.008z"></path></g></g></svg>